<svg xmlns="http://www.w3.org/2000/svg" viewBox="0 0 345.12 92.83"><g id="Ebene_2" data-name="Ebene 2"><g id="Ebene_1-2" data-name="Ebene 1"><path d="M15,33.71a4,4,0,0,0-4,4v4.87c0,1.63,0,4,3.62,5.88l19.75,11c10.25,5.25,11,9.5,11,14v7.12c0,10.25-8.37,12.25-12.87,12.25H1.62A1.25,1.25,0,0,1,.37,91.58V84.46a1.26,1.26,0,0,1,1.25-1.25H30.37a3.92,3.92,0,0,0,4-3.88V75.08c0-1.62,0-4.5-3.5-6L11,58.21C.75,53.58,0,48.08,0,44.21V35.33c0-7.62,6.37-11.25,12.75-11.25H41.12a1.26,1.26,0,0,1,1.25,1.25v7.13a1.25,1.25,0,0,1-1.25,1.25Z"/><path d="M71.75,32.83V79.08a4.08,4.08,0,0,0,4.12,4.13H88.75A1.25,1.25,0,0,1,90,84.46v7.12a1.26,1.26,0,0,1-1.25,1.25H73.87a13.5,13.5,0,0,1-13.5-13.5V4.58a1.73,1.73,0,0,1,1.25-1.75L70.5.08c1-.37,1.25.63,1.25,1.25V23.21h15.5a1.25,1.25,0,0,1,1.25,1.25v7.12a1.26,1.26,0,0,1-1.25,1.25Z"/><path d="M119,34.33a3,3,0,0,0-2.75,3l-.13,54.25a1.25,1.25,0,0,1-1.25,1.25H106a1.25,1.25,0,0,1-1.25-1.25l-.13-53.75c0-6.87,5-13.75,13.75-13.75h17.5a1.26,1.26,0,0,1,1.25,1.25v7.75a1.25,1.25,0,0,1-1.25,1.25Z"/><path d="M181.62,83.21a4.17,4.17,0,0,0,4.13-4.13V25.33A1.25,1.25,0,0,1,187,24.08h8.87a1.26,1.26,0,0,1,1.25,1.25V79.08c0,6.88-5,13.75-13.75,13.75H161c-8.75,0-13.75-6.87-13.75-13.75V25.33a1.25,1.25,0,0,1,1.25-1.25h8.75a1.26,1.26,0,0,1,1.25,1.25V79.08a4.16,4.16,0,0,0,4.12,4.13Z"/><path d="M245.62,92.83H227a13.66,13.66,0,0,1-13.63-13.62V37.71A13.41,13.41,0,0,1,227,24.08h27.62a1.26,1.26,0,0,1,1.25,1.25v7.13a1.25,1.25,0,0,1-1.25,1.25h-26a4,4,0,0,0-4,4V79.33a3.82,3.82,0,0,0,3.88,3.88h26.12a1.25,1.25,0,0,1,1.25,1.25v7.12a1.25,1.25,0,0,1-1.25,1.25Z"/><path d="M279.74,32.83V79.08a4.08,4.08,0,0,0,4.13,4.13h12.87A1.25,1.25,0,0,1,298,84.46v7.12a1.25,1.25,0,0,1-1.25,1.25H281.87a13.5,13.5,0,0,1-13.5-13.5V4.58a1.72,1.72,0,0,1,1.25-1.75L278.49.08c1-.37,1.25.63,1.25,1.25V23.21h15.5a1.25,1.25,0,0,1,1.25,1.25v7.12a1.25,1.25,0,0,1-1.25,1.25Z"/><path d="M327,34.33a3.05,3.05,0,0,0-2.75,3l-.12,54.25a1.26,1.26,0,0,1-1.25,1.25H314a1.25,1.25,0,0,1-1.25-1.25l-.12-53.75c0-6.87,5-13.75,13.75-13.75h17.5a1.26,1.26,0,0,1,1.25,1.25v7.75a1.26,1.26,0,0,1-1.25,1.25Z"/></g></g></svg>